<?xml version="1.0" encoding="iso-8859-1"?>
<svg version="1.1" xmlns="http://www.w3.org/2000/svg" xmlns:xlink="http://www.w3.org/1999/xlink" x="0px" y="0px"
	 viewBox="0 0 492 492">
  <path style="fill:#607d8b;" d="M492,25.323c0-8.153-6.332-14.761-14.143-14.761H14.143C6.333,10.562,0,17.17,0,25.323v320.629
  	h492V25.323z"/>
  <rect x="28.042" y="39.834" style="fill:#ebf0f3;" width="435.456" height="276.838"/>
  <rect x="28.042" y="303.462" style="fill:#e1e6e9;" width="435.456" height="13.225"/>
  <path style="fill:#ebf0f3;" d="M0,345.952v54.4c0,8.153,6.333,14.761,14.143,14.761h463.234c7.811,0,14.143-6.608,14.143-14.761
  	v-54.4H0z"/>
  <ellipse style="fill:#607d8b;" cx="245.76" cy="380.518" rx="19.2" ry="20.04"/>
  <rect x="175.667" y="415.13" style="fill:#e1e6e9;" width="140.211" height="42.066"/>
  <polygon style="fill:#d5d6db;" points="315.865,457.177 175.655,415.113 315.865,415.113 "/>
  <polygon style="fill:#ebf0f3;" points="315.865,457.177 175.655,457.177 157.668,480.958 333.852,480.958 "/>
  <path style="fill:#e91e63;" d="M364.342,238.521c45.984,0,83.262-37.277,83.262-83.261h-83.262V238.521z"/>
  <path style="fill:#4caf50;" d="M415.379,71.998l-53.433,63.839h83.261C445.206,110.195,433.606,87.271,415.379,71.998z"/>
  <path style="fill:#ffc107;" d="M342.522,50.178c-45.983,0-83.261,37.277-83.261,83.261c0,45.984,37.277,83.261,83.261,83.261
  	v-83.261L395.955,69.6C381.494,57.483,362.864,50.178,342.522,50.178z"/>
  <rect x="259.261" y="268.288" style="fill:#d5d6db;" width="185.958" height="15.841"/>
  <rect x="43.151" y="66.867" style="fill:#2196f3;" width="35.994" height="17.71"/>
  <rect x="103.117" y="66.867" style="fill:#e91e63;" width="35.994" height="17.71"/>
  <rect x="168.76" y="66.867" style="fill:#4caf50;" width="77.005" height="17.71"/>
  <rect x="43.151" y="216.166" style="fill:#2196f3;" width="35.994" height="17.71"/>
  <rect x="103.117" y="216.166" style="fill:#e91e63;" width="35.994" height="17.71"/>
  <rect x="168.76" y="216.166" style="fill:#4caf50;" width="77.005" height="17.71"/>
  <rect x="43.151" y="166.4" style="fill:#ffc107;" width="59.96" height="17.71"/>
  <rect x="121.416" y="166.4" style="fill:#2196f3;" width="35.994" height="17.71"/>
  <rect x="175.718" y="166.4" style="fill:#d5d6db;" width="70.057" height="17.71"/>
  <g>
  	<rect x="43.151" y="116.639" style="fill:#607d8b;" width="35.994" height="17.71"/>
  	<rect x="103.117" y="116.639" style="fill:#607d8b;" width="78.264" height="17.71"/>
  </g>
  <rect x="203.469" y="116.639" style="fill:#e91e63;" width="42.291" height="17.71"/>
  <rect x="43.151" y="265.912" style="fill:#4caf50;" width="35.994" height="17.71"/>
  <rect x="103.117" y="265.912" style="fill:#607d8b;" width="78.264" height="17.71"/>
  <rect x="203.469" y="265.912" style="fill:#e91e63;" width="42.291" height="17.71"/>
</svg>
