<?xml version="1.0" encoding="iso-8859-1"?>
<!-- Generator: Adobe Illustrator 21.0.0, SVG Export Plug-In . SVG Version: 6.00 Build 0)  -->
<svg xmlns="http://www.w3.org/2000/svg" xmlns:xlink="http://www.w3.org/1999/xlink" version="1.1" id="Capa_1" x="0px" y="0px" viewBox="0 0 512 512" style="enable-background:new 0 0 512 512;" xml:space="preserve" width="512" height="512">
<g>
	<path fill="#7CCCF2" d="M391.425,344.896c-2.884,0-5.652-1.623-6.978-4.399c-1.838-3.851-0.207-8.463,3.644-10.301   c10.372-4.952,16.779-14.808,17.539-21.567c2.164-19.207-13.531-59.264-24.82-80.289c-2.019-3.76-0.608-8.444,3.152-10.462   c3.76-2.019,8.445-0.607,10.462,3.152c11.704,21.799,29.266,65.326,26.562,89.328c-1.218,10.819-9.949,26.006-26.237,33.782   C393.674,344.653,392.541,344.896,391.425,344.896z"/>
	<ellipse fill="#405777" cx="128.251" cy="72.231" rx="69.627" ry="72.231"/>
	<path fill="#52668D" d="M366.392,271.639c57.022-24.267,59.973-89.371,58.543-121.915c-0.096-2.191,2.827-3.001,3.872-1.073   c4.977,9.177,10.77,24.927,14.469,36.877c0.6,1.939,3.338,1.923,3.941-0.015C479.457,82.012,376.907,33.797,329.502,33.797   c0,0-92.044,0-121.013,0c-65.811,0-163.541,139.511-45.559,241.011c0,0,6.626,44.649-26.777,58.26   c-0.925,0.377-0.84,1.693,0.125,1.954c17.458,4.709,41.007-6.325,45.317-12.45c6.607,13.689,12.563,34.73,0,56.02   C220.044,368.101,366.392,271.639,366.392,271.639z"/>
	<path fill="#243B5D" d="M349.621,36.099c45.592,20.431,92.113,67.544,68.93,144.045c-0.604,1.992-3.341,2.008-3.941,0.015   c-3.699-12.282-9.492-28.471-14.469-37.903c-1.046-1.982-3.969-1.15-3.873,1.102c1.43,33.449-1.522,100.364-58.543,125.306   c0,0-92.61,62.739-149.844,93.827c-1.092,5.272-3.086,10.678-6.285,16.1c38.448-10.491,184.797-106.953,184.797-106.953   c57.022-24.267,59.973-89.371,58.544-121.915c-0.096-2.191,2.827-3.001,3.872-1.073c4.977,9.177,10.77,24.927,14.469,36.877   c0.6,1.939,3.338,1.923,3.942-0.015C475.404,95.025,400.564,46.797,349.621,36.099z"/>
	<path fill="#7CCCF2" d="M375.072,465.817c-1.597,12.568-6.645,18.368-15.525,21.047v9.684   c0,8.53-6.923,15.453-15.453,15.453H166.728c-8.54,0-15.453-6.923-15.453-15.453v-80.097c0-36.613,29.68-66.292,66.292-66.292   h59.009c19.841,0,38.055,6.954,52.323,18.574c0.237,0.196,0.484,0.392,0.721,0.587C353.387,388.77,379.193,433.284,375.072,465.817   z"/>
	<path fill="#4FACDB" d="M329.621,369.32c-0.237-0.196-0.484-0.391-0.721-0.587c-14.268-11.62-32.482-18.574-52.323-18.574   h-24.724c19.841,0,38.055,6.954,52.323,18.574c0.237,0.196,0.484,0.392,0.721,0.587c23.766,19.45,49.572,63.964,45.451,96.497   c-1.597,12.568-6.645,18.368-15.525,21.047v9.684c0,8.53-6.923,15.453-15.453,15.453h24.724c8.53,0,15.453-6.923,15.453-15.453   v-9.684c8.88-2.679,13.928-8.478,15.525-21.047C379.193,433.284,353.387,388.77,329.621,369.32z"/>
	<path fill="#F6BB93" d="M303.688,426.053c-18.815,7.628-93.539-63.634-93.539-68.039V241.073h96.366v114.002   C306.515,357.06,323.465,418.035,303.688,426.053z"/>
	<path fill="#E49775" d="M307.585,360.047c-0.712-1.556-1.07-3.256-1.07-4.972V241.073h-96.366v63.39   c12.551,37.073,47.63,63.757,88.941,63.757h0c3.425,0,6.806-0.186,10.136-0.543C308.622,364.704,308.048,362.104,307.585,360.047z"/>
	<path fill="#F6BB93" d="M388.568,183.063v66.395c0,25.93-10.508,49.397-27.495,66.385s-40.466,27.496-66.385,27.496   c-51.839,0-93.87-42.031-93.87-93.881v-29.71c27.743-14.979,55.795-53.58,55.516-98.238   c37.262,18.183,102.163,25.703,130.802,45.833C388.073,172.442,388.568,177.696,388.568,183.063z"/>
	<path fill="#E49775" d="M387.121,167.333c-6.603-4.638-15.146-8.602-24.818-12.186c1.988,7.268,3.058,14.914,3.058,22.813   v66.399c0,54.955-47.093,98.444-102.354,93.492c33.093,11.913,71.621,4.435,98.065-22.008   c16.988-16.988,27.495-40.455,27.495-66.385C388.022,187.342,389.7,181.35,387.121,167.333z"/>
	<g>
		<path fill="#243B5D" d="M349.756,228.812c-4.268,0-7.726-3.459-7.726-7.726v-8.629c0-4.267,3.459-7.726,7.726-7.726    s7.726,3.459,7.726,7.726v8.629C357.482,225.353,354.023,228.812,349.756,228.812z"/>
		<path fill="#243B5D" d="M279.551,228.812c-4.268,0-7.726-3.459-7.726-7.726v-8.629c0-4.267,3.459-7.726,7.726-7.726    s7.726,3.459,7.726,7.726v8.629C287.278,225.353,283.819,228.812,279.551,228.812z"/>
	</g>
	<path fill="#BC4142" d="M314.653,299.767L314.653,299.767c-15.487,0-28.042-12.555-28.042-28.042v-3.86   c0-3.392,2.749-6.141,6.141-6.141h43.802c3.392,0,6.141,2.749,6.141,6.141v3.86C342.696,287.213,330.141,299.767,314.653,299.767z"/>
	<g>
		<path fill="#243B5D" d="M294.504,197.829c-1.605,0-3.223-0.498-4.609-1.53c-7.839-5.838-14.527-5.838-22.366,0    c-3.422,2.548-8.264,1.84-10.811-1.581c-2.549-3.423-1.841-8.263,1.581-10.812c13.354-9.946,27.471-9.946,40.825,0    c3.423,2.549,4.131,7.389,1.581,10.812C299.19,196.754,296.862,197.829,294.504,197.829z"/>
		<path fill="#243B5D" d="M334.803,197.829c-2.358,0-4.686-1.075-6.202-3.112c-2.549-3.422-1.841-8.263,1.581-10.811    c13.353-9.946,27.471-9.947,40.826-0.001c3.423,2.549,4.131,7.389,1.582,10.812c-2.548,3.421-7.39,4.13-10.811,1.581    c-7.839-5.838-14.528-5.838-22.365-0.001C338.026,197.331,336.407,197.829,334.803,197.829z"/>
	</g>
	<path fill="#F44D18" d="M306.684,1.436l-46.049,0c-54.605,0-98.871,44.266-98.871,98.871v114.646h45.069V94.258   c0-33.391,27.069-60.461,60.461-60.461h62.208v-9.544C329.502,11.652,319.286,1.436,306.684,1.436z"/>
	<ellipse fill="#7CCCF2" cx="184.299" cy="241.073" rx="44.617" ry="49.283"/>
	<path fill="#52668D" d="M384.383,319.059c-12.76,0-23.142,10.382-23.142,23.143c0,12.761,10.381,23.142,23.142,23.142   s23.143-10.382,23.143-23.142C407.526,329.441,397.144,319.059,384.383,319.059z"/>
	<path fill="#C2E8EF" d="M166.724,512h48.561v-74.53c0-17.677-14.33-32.007-32.007-32.007h0   c-17.677,0-32.007,14.33-32.007,32.007v59.078C151.271,505.081,158.19,512,166.724,512z"/>
	<path fill="#F6BB93" d="M151.271,478.004v18.543c0,8.534,6.919,15.453,15.453,15.453h48.561v-33.996H151.271z"/>
</g>















</svg>
